<?xml version="1.0" standalone="no"?>
<!DOCTYPE svg PUBLIC "-//W3C//DTD SVG 20010904//EN"
 "http://www.w3.org/TR/2001/REC-SVG-20010904/DTD/svg10.dtd">
<svg version="1.0" xmlns="http://www.w3.org/2000/svg"
 width="352.000000pt" height="361.000000pt" viewBox="0 0 352.000000 361.000000"
 preserveAspectRatio="xMidYMid meet">

<g transform="translate(0.000000,361.000000) scale(0.100000,-0.100000)"
fill="#ea5e28" stroke="none">
<path d="M1927 3481 c-49 -20 -102 -56 -138 -94 -52 -55 -97 -199 -84 -264 29
-138 85 -217 193 -270 80 -39 192 -44 277 -12 80 30 164 114 194 194 28 75 28
175 -1 252 -26 70 -106 154 -175 185 -69 31 -201 35 -266 9z"/>
<path d="M962 2995 c-37 -16 -537 -381 -563 -411 -28 -33 -41 -87 -30 -134 21
-96 128 -148 214 -104 18 9 126 77 241 151 123 80 215 133 225 130 55 -14 331
-134 331 -143 0 -7 -54 -221 -119 -475 -66 -255 -156 -609 -202 -786 l-82
-323 -324 0 c-304 0 -326 -1 -363 -20 -57 -29 -93 -81 -98 -144 -7 -92 41
-160 133 -185 39 -10 554 -31 771 -31 99 0 115 2 145 23 18 12 43 36 54 53 11
16 61 148 110 292 50 144 93 262 98 262 11 0 571 -331 578 -341 3 -5 57 -141
119 -302 62 -160 124 -309 137 -329 40 -65 135 -96 210 -67 64 24 113 97 113
169 0 30 -219 720 -243 767 -12 21 -104 94 -301 237 l-284 206 44 147 c24 82
72 244 106 361 34 116 68 212 74 212 6 0 94 -34 194 -76 155 -63 190 -74 219
-69 20 4 177 70 351 148 372 166 390 179 390 273 0 88 -45 142 -131 158 -29 5
-60 -3 -155 -40 -65 -25 -196 -75 -290 -110 l-170 -64 -540 221 c-798 327
-880 359 -906 359 -12 -1 -38 -7 -56 -15z"/>
</g>
</svg>
