<svg xmlns="http://www.w3.org/2000/svg" version="1.1" viewBox="0.00 0.00 289.00 268.00">
<path fill="#ea5e28" d="
  M 154.64 128.38
  Q 169.55 119.47 184.34 110.34
  C 188.59 107.71 192.57 108.43 197.29 110.54
  Q 216.97 119.29 236.64 128.05
  Q 242.26 130.55 244.29 132.80
  C 251.09 140.31 245.22 152.59 234.96 151.87
  Q 232.59 151.71 228.32 149.79
  Q 209.96 141.57 191.55 133.48
  Q 191.05 133.26 190.57 133.54
  L 159.13 152.59
  Q 158.26 153.12 159.22 153.43
  Q 159.60 153.56 160.71 153.90
  Q 166.67 155.70 172.67 157.40
  C 178.88 159.15 183.21 161.27 184.00 167.76
  Q 185.51 180.11 187.18 192.45
  Q 187.25 192.96 187.76 192.99
  Q 205.33 194.08 222.69 196.71
  C 230.28 197.86 260.81 203.59 262.78 212.35
  C 264.51 220.06 244.87 225.50 239.22 226.74
  Q 215.01 232.04 186.75 233.98
  C 151.25 236.42 115.05 235.84 79.75 231.28
  C 68.50 229.83 33.34 224.36 31.21 214.25
  C 30.27 209.79 37.50 205.87 41.24 204.45
  C 56.58 198.62 73.77 196.00 90.03 194.35
  C 114.44 191.88 138.58 191.40 163.09 191.76
  A 0.48 0.48 0.0 0 0 163.58 191.22
  L 162.10 179.26
  Q 162.04 178.74 161.54 178.56
  C 152.69 175.49 143.51 173.09 134.53 170.39
  Q 129.14 168.77 126.43 166.58
  Q 120.97 162.17 119.75 155.50
  Q 116.20 135.97 112.88 116.51
  A 0.41 0.41 0.0 0 0 112.15 116.32
  Q 105.34 124.94 98.37 133.62
  C 96.75 135.65 95.41 136.80 92.60 136.47
  Q 76.03 134.50 59.45 132.76
  C 55.48 132.35 52.57 133.45 49.27 129.96
  C 44.87 125.30 46.59 118.52 52.33 115.72
  Q 52.84 115.47 53.41 115.54
  L 88.07 119.63
  Q 88.61 119.69 88.93 119.26
  Q 101.73 102.10 114.38 84.89
  Q 116.12 82.53 120.47 79.98
  Q 149.51 62.98 178.51 45.93
  C 183.48 43.01 187.46 41.08 192.07 44.64
  Q 194.47 46.49 195.14 49.61
  Q 196.53 56.03 190.08 59.81
  Q 169.18 72.05 148.25 84.38
  A 1.12 1.11 -20.0 0 0 147.71 85.53
  L 154.61 127.92
  Q 154.63 128.00 154.57 128.06
  Q 154.48 128.18 154.49 128.30
  Q 154.50 128.46 154.64 128.38
  Z"
/>
<circle fill="#ea5e28" cx="101.81" cy="65.57" r="18.61"/>
</svg>